<svg width="95" height="80" viewBox="0 0 95 80" fill="none" xmlns="http://www.w3.org/2000/svg">
<path d="M73.1597 25.2625C70.6062 25.2625 68.3035 23.7247 67.3249 21.3645C66.3462 19.0043 66.889 16.2864 68.6942 14.4812C70.4993 12.6762 73.2173 12.1333 75.5776 13.112C77.9378 14.0906 79.4757 16.3932 79.4757 18.9467C79.4716 22.4335 76.6467 25.2584 73.1597 25.2625ZM73.1597 15.7888C71.881 15.7888 70.7296 16.5577 70.2403 17.7379C69.7551 18.918 70.0224 20.2749 70.927 21.1794C71.8316 22.084 73.1885 22.3513 74.3687 21.8661C75.5488 21.3768 76.3177 20.2255 76.3177 18.9467C76.3177 17.2034 74.9031 15.7888 73.1597 15.7888Z" fill="#5A8D8D"/>
<path d="M81.3191 59.7341H27.6337C26.7619 59.7341 26.0547 59.0268 26.0547 58.1551C26.0547 57.2834 26.7619 56.5762 27.6337 56.5762H81.3191C82.1908 56.5762 82.8981 57.2834 82.8981 58.1551C82.8981 59.0268 82.1908 59.7341 81.3191 59.7341Z" fill="#5A8D8D"/>
<path d="M19.7387 59.7341H13.4227C12.551 59.7341 11.8438 59.0268 11.8438 58.1551C11.8438 57.2834 12.551 56.5762 13.4227 56.5762H19.7387C20.6104 56.5762 21.3176 57.2834 21.3176 58.1551C21.3176 59.0268 20.6104 59.7341 19.7387 59.7341Z" fill="#5A8D8D"/>
<path d="M61.5803 39.4717C60.7086 39.4717 60.0013 38.7645 60.0013 37.8928V31.577H59.475C55.1164 31.5729 51.5842 28.0408 51.5801 23.6822V7.89278C51.5842 3.53426 55.1164 0.00215214 59.475 -0.00195312H86.844C91.2027 0.00215845 94.7348 3.53426 94.739 7.89278V23.6822C94.7348 28.0408 91.2027 31.5729 86.844 31.577H73.649L62.4687 39.1962C62.2097 39.3772 61.8969 39.4717 61.5803 39.4717ZM59.475 3.15594C56.8598 3.16005 54.7421 5.27762 54.738 7.89278V23.6822C54.7422 26.2974 56.8598 28.415 59.475 28.4191H61.5803C62.452 28.4191 63.1593 29.1263 63.1593 29.998V34.9035L72.2713 28.6947C72.5303 28.5137 72.8428 28.4192 73.1595 28.4192H86.844C89.4592 28.4151 91.5768 26.2975 91.5809 23.6823V7.89286C91.5768 5.27771 89.4592 3.16013 86.844 3.15602L59.475 3.15594Z" fill="#5A8D8D"/>
<path d="M56.3171 80.0005H34.2113C33.7179 80.0005 33.2532 79.7703 32.9572 79.3797C32.657 78.989 32.5583 78.4792 32.6899 78.0063L35.8479 66.4274C36.0329 65.7407 36.6579 65.2637 37.3693 65.2637H53.1591C53.8705 65.2637 54.4954 65.7406 54.6805 66.4274L57.8385 78.0063C57.97 78.4792 57.8714 78.989 57.5712 79.3797C57.2751 79.7703 56.8105 80.0005 56.3171 80.0005ZM36.2798 76.8427H54.2486L51.95 68.4216H38.5739L36.2798 76.8427Z" fill="#5A8D8D"/>
<path d="M62.633 79.9997H27.8954C27.0237 79.9997 26.3164 79.2924 26.3164 78.4207C26.3164 77.549 27.0237 76.8418 27.8954 76.8418H62.633C63.5047 76.8418 64.212 77.549 64.212 78.4207C64.212 79.2924 63.5047 79.9997 62.633 79.9997Z" fill="#5A8D8D"/>
<path d="M82.6335 68.4215H7.89492C3.53629 68.4174 0.00410536 64.8853 0 60.5268V13.1584C0.00411167 8.79988 3.53629 5.26778 7.89492 5.26367H53.2538C54.1256 5.26367 54.8328 5.97091 54.8328 6.84262C54.8328 7.71432 54.1256 8.42157 53.2538 8.42157H7.89492C5.2797 8.42568 3.16207 10.5432 3.15797 13.1584V60.5268C3.16208 63.142 5.2797 65.2595 7.89492 65.2636H82.6335C85.2487 65.2595 87.3663 63.142 87.3704 60.5268V29.63C87.3704 28.7583 88.0777 28.051 88.9494 28.051C89.8211 28.051 90.5284 28.7583 90.5284 29.63V60.5268C90.5243 64.8853 86.9921 68.4174 82.6335 68.4215Z" fill="#5A8D8D"/>
<path d="M31.5795 34.2113C27.7472 34.2113 24.2932 31.9045 22.8252 28.3642C21.3614 24.8239 22.1714 20.749 24.8812 18.0394C27.5909 15.3297 31.6659 14.5196 35.2063 15.9835C38.7467 17.4514 41.0534 20.9054 41.0534 24.7376C41.0493 29.9679 36.81 34.2071 31.5795 34.2113ZM31.5795 18.4218C29.026 18.4218 26.7233 19.9596 25.7447 22.3198C24.766 24.68 25.3088 27.3979 27.114 29.203C28.9191 31.0081 31.6371 31.5509 33.9974 30.5723C36.3577 29.5937 37.8955 27.291 37.8955 24.7376C37.8914 21.2507 35.0665 18.4259 31.5795 18.4218Z" fill="#5A8D8D"/>
<path d="M43.6885 46.3159C42.8168 46.3159 42.1095 45.6086 42.1095 44.7369C42.1095 38.9228 37.3972 34.2106 31.583 34.2106C25.7687 34.2106 21.0564 38.9228 21.0564 44.7369C21.0564 45.6086 20.3491 46.3159 19.4774 46.3159C18.6057 46.3159 17.8984 45.6086 17.8984 44.7369C17.8984 37.1794 24.0252 31.0527 31.583 31.0527C39.1407 31.0527 45.2675 37.1794 45.2675 44.7369C45.2675 45.6086 44.5602 46.3159 43.6885 46.3159Z" fill="#5A8D8D"/>
<path d="M19.4774 52.1017C18.6057 52.1017 17.8984 51.3944 17.8984 50.5227V44.7332C17.8984 43.8615 18.6057 43.1543 19.4774 43.1543C20.3491 43.1543 21.0564 43.8615 21.0564 44.7332V50.5227C21.0564 51.3944 20.3491 52.1017 19.4774 52.1017Z" fill="#5A8D8D"/>
<path d="M43.6885 52.1013H19.4774C18.6057 52.1013 17.8984 51.394 17.8984 50.5223C17.8984 49.6506 18.6057 48.9434 19.4774 48.9434H43.6885C44.5602 48.9434 45.2675 49.6506 45.2675 50.5223C45.2675 51.394 44.5602 52.1013 43.6885 52.1013Z" fill="#5A8D8D"/>
<path d="M87.371 17.3631C86.894 17.3631 86.4417 17.1493 86.1415 16.7751C86.0839 16.7011 80.1422 9.46841 73.1601 9.46841C66.1781 9.46841 60.2367 16.7011 60.1788 16.7751C59.6278 17.4372 58.6451 17.5358 57.9706 16.9931C57.3004 16.4544 57.1894 15.4717 57.7198 14.7933C58.0035 14.4479 64.6525 6.31055 73.1602 6.31055C81.6678 6.31055 88.3163 14.4479 88.6005 14.7933C88.9829 15.2661 89.0569 15.9158 88.7938 16.4668C88.5347 17.0136 87.9796 17.3631 87.371 17.3631Z" fill="#5A8D8D"/>
<path d="M43.6845 52.1017C42.8127 52.1017 42.1055 51.3944 42.1055 50.5227V44.7332C42.1055 43.8615 42.8127 43.1543 43.6845 43.1543C44.5562 43.1543 45.2634 43.8615 45.2634 44.7332V50.5227C45.2634 51.3944 44.5562 52.1017 43.6845 52.1017Z" fill="#5A8D8D"/>
</svg>
