<svg width="80" height="80" viewBox="0 0 80 80" fill="none" xmlns="http://www.w3.org/2000/svg">
<path d="M53.0238 12.6026L65.9059 3.67524L64.6419 1.78576C64.1917 1.10971 64.6592 0.173631 65.5249 0.173631L77.195 0.0002838C77.9396 -0.0170509 78.4417 0.763011 78.1646 1.43907L73.5589 12.2213C73.2127 13.0187 72.1565 13.0533 71.7236 12.3599L70.4943 10.5225C66.9101 12.8626 59.4302 17.5777 57.7853 18.9645C57.3178 19.3632 56.6252 19.2592 56.2616 18.7564L52.7987 14.0761C52.4351 13.5907 52.539 12.9493 53.0238 12.6026ZM67.9317 4.802L55.0842 13.6947L57.3178 16.6936C59.4302 15.1682 63.8454 12.3253 67.014 10.2798C68.4857 9.34369 69.6805 8.56363 70.2172 8.21694C70.6847 7.90491 71.3427 8.02626 71.6543 8.49429L72.4162 9.63839L75.654 2.08045L67.4296 2.21913L68.1914 3.34588C68.5204 3.83126 68.3992 4.47264 67.9317 4.802ZM19.3468 42.5397C19.1909 42.5223 19.0178 42.4877 18.8793 42.401L17.6153 41.6556V70.1019H26.2034V57.1008C26.2034 56.5288 26.6709 56.0608 27.2423 56.0608H43.4488V41.9156C43.4488 41.3436 43.9163 40.8755 44.4876 40.8755H60.6942V24.3382C60.6942 23.7662 61.1617 23.2981 61.733 23.2981H78.9611C79.5325 23.2981 80 23.7662 80 24.3382V78.9599C80 79.532 79.5325 80 78.9611 80H1.11444C0.543056 80 0.0755605 79.532 0.0755605 78.9599V44.8105C0.0755605 39.1074 -0.824801 31.5495 3.59044 28.2212C-0.305362 24.4076 -0.339991 18.1324 3.50386 14.2841C7.3304 10.4531 13.529 10.4531 17.3556 14.2841C21.4418 18.3577 21.1129 25.0663 16.6976 28.7586C18.2906 29.6947 20.8185 31.4455 23.3984 33.2309L26.1687 31.8268C25.7186 31.5148 25.3376 31.0988 25.0606 30.5961L22.8963 26.8344C21.8228 24.9623 22.4807 22.5701 24.3161 21.5127L28.4716 19.1205L33.7699 9.15301C34.1508 8.44229 35.1724 8.40762 35.5879 9.15301L38.7392 14.6308C40.9728 13.9894 43.3795 14.9775 44.5569 17.0403C45.7343 19.0858 45.388 21.6687 43.7258 23.2981L46.7039 28.4639C47.1195 29.1746 46.5827 30.0413 45.7689 30.0067L34.4971 29.6253L33.7699 30.0413C36.7999 31.6535 37.2501 36.5245 33.2331 38.6914L26.3765 42.3663L25.6839 42.6957C23.7966 43.5971 22.498 44.2211 20.0913 42.9384L19.3468 42.5397ZM15.5375 40.4595L10.7414 37.686C10.2393 37.3913 10.0834 36.7672 10.3605 36.2645C10.6548 35.7618 11.2781 35.6058 11.7803 35.8831L17.0612 38.9341L21.0782 41.0836C22.5673 41.881 23.485 41.4476 24.8009 40.8062C25.0087 40.7022 25.2337 40.5982 25.4415 40.4942L32.2808 36.8366C35.7611 34.9644 33.7699 30.1974 30.3243 32.0175C30.2377 32.0695 30.1511 32.1042 30.0819 32.1388L23.8313 35.3111C23.5023 35.4844 23.104 35.4671 22.7751 35.2418C19.7104 33.1269 16.6284 30.9601 14.7584 30.0067C11.763 31.4801 8.19613 31.2894 5.35653 29.556C1.28759 32.0002 2.20526 39.6968 2.20526 44.8105V70.1019H8.35196V49.6816C8.35196 49.1095 8.81946 48.6415 9.39084 48.6415C9.96223 48.6415 10.4297 49.1095 10.4297 49.6816V70.1019H15.5722V40.4595H15.5375ZM15.8838 15.7575C12.8711 12.7413 7.98836 12.7413 4.97561 15.7575C1.96286 18.7738 1.96286 23.6622 4.97561 26.6784C7.98836 29.6947 12.8711 29.6947 15.8838 26.6784C18.8966 23.6622 18.8966 18.7738 15.8838 15.7575ZM29.1122 30.3187L29.3546 30.1974L32.8349 28.1865L28.8525 21.27L25.2857 23.3328C24.5065 23.7835 24.1949 24.9623 24.6451 25.7423L26.844 29.556C27.2942 30.336 28.2811 30.6654 29.1122 30.3187ZM16.5764 72.182H2.15332V77.9198H77.9222V72.182H16.5764ZM77.9222 25.3956H62.7546V70.1192H77.9222V25.3956ZM60.6768 42.9557H45.5092V70.1019H60.6768V42.9557ZM43.4314 58.1583H28.2638V70.1192H43.4314V58.1583ZM47.4138 16.5723C46.9117 16.8496 46.2884 16.6936 45.994 16.1909C45.6997 15.6882 45.8728 15.0642 46.3749 14.7695L48.2276 13.6947C48.7297 13.4 49.3531 13.5734 49.6474 14.0761C49.9244 14.5788 49.7686 15.2028 49.2665 15.4975L47.4138 16.5723ZM44.0548 12.3773C43.8816 12.9146 43.3102 13.2267 42.7562 13.0533C42.2021 12.88 41.9078 12.3079 42.0809 11.7532L42.6177 10.0544C42.7908 9.49971 43.3622 9.20502 43.9163 9.37837C44.4703 9.55171 44.7647 10.1238 44.5915 10.6785L44.0548 12.3773ZM47.8813 21.8247C47.3272 21.7033 46.981 21.1486 47.1022 20.5939C47.2234 20.0392 47.7774 19.6925 48.3488 19.8139L50.0803 20.1952C50.6343 20.3166 50.9806 20.8713 50.8594 21.426C50.7382 21.9807 50.1842 22.3447 49.6301 22.2061L47.8813 21.8247ZM37.4406 16.4856L34.7222 11.7706L30.4108 19.8312L34.8607 27.5451L44.0028 27.8398L37.4406 16.4856ZM42.635 21.374C43.3102 20.4032 43.3795 19.1205 42.7735 18.0631C42.1502 17.0056 41.0074 16.4163 39.83 16.5203L42.635 21.374Z" fill="#F20574" fill-opacity="0.77"/>
</svg>
