<svg width="86" height="76" viewBox="0 0 86 76" fill="none" xmlns="http://www.w3.org/2000/svg">
<path d="M11.6875 43.0581C11.6907 43.8542 11.7701 44.6483 11.9246 45.4293C12.0135 45.9783 12.2926 46.4786 12.713 46.8427C13.1335 47.2068 13.6686 47.4115 14.2247 47.4211H40.3076C40.8691 47.4302 41.4156 47.2398 41.8498 46.8838C42.284 46.5277 42.5778 46.0291 42.6788 45.4767C42.8201 44.6938 42.8993 43.9009 42.9159 43.1055C42.8763 40.6469 42.2002 38.2406 40.9535 36.1212C39.7068 34.0018 37.932 32.2416 35.8024 31.0125C37.1849 29.2094 37.9349 27.001 37.9364 24.7289C37.9364 21.899 36.8122 19.1849 34.8112 17.1839C32.8101 15.1828 30.0961 14.0586 27.2661 14.0586C24.4362 14.0586 21.7222 15.1828 19.7211 17.1839C17.72 19.1849 16.5958 21.899 16.5958 24.7289C16.606 27.0107 17.364 29.2263 18.7536 31.0362C16.643 32.2651 14.8842 34.0165 13.6467 36.1221C12.4091 38.2276 11.7344 40.6163 11.6875 43.0581Z" fill="#8F9F42"/>
<path d="M72.1774 18.117L56.5276 33.3873L51.0502 27.9336C50.8307 27.7126 50.5697 27.5369 50.2823 27.4166C49.9949 27.2964 49.6866 27.2339 49.375 27.2328C49.0635 27.2317 48.7547 27.292 48.4665 27.4102C48.1782 27.5284 47.9161 27.7023 47.695 27.9218C47.4739 28.1413 47.2982 28.4022 47.178 28.6897C47.0577 28.9771 46.9953 29.2854 46.9942 29.5969C46.9931 29.9085 47.0533 30.2172 47.1715 30.5055C47.2898 30.7938 47.4636 31.0559 47.6831 31.277L54.7966 38.3905C55.0182 38.6103 55.281 38.7842 55.5699 38.9022C55.8588 39.0202 56.1681 39.08 56.4802 39.0782C57.0966 39.07 57.688 38.8334 58.14 38.4142L75.4733 21.484C75.696 21.2661 75.8735 21.0064 75.9958 20.7198C76.1181 20.4332 76.1827 20.1254 76.186 19.8138C76.1893 19.5022 76.1312 19.1931 76.015 18.904C75.8988 18.6149 75.7269 18.3515 75.5089 18.1288C75.2909 17.9062 75.0312 17.7286 74.7446 17.6064C74.4581 17.4841 74.1502 17.4195 73.8386 17.4161C73.5271 17.4128 73.2179 17.4709 72.9288 17.5871C72.6397 17.7033 72.3763 17.8753 72.1537 18.0933L72.1774 18.117Z" fill="#8F9F42"/>
<path d="M82.9912 18.9694C83.6201 18.9694 84.2232 18.7196 84.6679 18.2749C85.1126 17.8302 85.3624 17.2271 85.3624 16.5982V9.48471C85.3624 6.96921 84.3631 4.55673 82.5844 2.77801C80.8056 0.999279 78.3932 0 75.8777 0H9.48471C6.96921 0 4.55673 0.999279 2.77801 2.77801C0.999279 4.55673 0 6.96921 0 9.48471V54.5371C0 57.0526 0.999279 59.4651 2.77801 61.2438C4.55673 63.0225 6.96921 64.0218 9.48471 64.0218H27.7428C28.0548 64.02 28.3642 64.0798 28.6531 64.1978C28.942 64.3158 29.2047 64.4897 29.4263 64.7094L39.3378 74.621C40.2264 75.5042 41.4283 76 42.6812 76C43.9341 76 45.136 75.5042 46.0246 74.621L55.9361 64.7094C56.1576 64.4897 56.4204 64.3158 56.7093 64.1978C56.9982 64.0798 57.3075 64.02 57.6196 64.0218H75.8777C78.3932 64.0218 80.8056 63.0225 82.5844 61.2438C84.3631 59.4651 85.3624 57.0526 85.3624 54.5371V28.4541C85.3624 27.8253 85.1126 27.2221 84.6679 26.7775C84.2232 26.3328 83.6201 26.083 82.9912 26.083C82.3623 26.083 81.7592 26.3328 81.3145 26.7775C80.8699 27.2221 80.62 27.8253 80.62 28.4541V54.5371C80.62 55.7948 80.1204 57.0011 79.231 57.8904C78.3417 58.7798 77.1354 59.2794 75.8777 59.2794H57.6196C55.7336 59.2811 53.9255 60.0316 52.5927 61.3661L42.6812 71.2776L32.7697 61.3661C31.4369 60.0316 29.6288 59.2811 27.7428 59.2794H9.48471C8.22696 59.2794 7.02072 58.7798 6.13136 57.8904C5.242 57.0011 4.74235 55.7948 4.74235 54.5371V9.48471C4.74235 8.22696 5.242 7.02072 6.13136 6.13136C7.02072 5.242 8.22696 4.74235 9.48471 4.74235H75.8777C77.1354 4.74235 78.3417 5.242 79.231 6.13136C80.1204 7.02072 80.62 8.22696 80.62 9.48471V16.5982C80.62 17.2271 80.8699 17.8302 81.3145 18.2749C81.7592 18.7196 82.3623 18.9694 82.9912 18.9694Z" fill="#8F9F42"/>
</svg>
