<svg width="89" height="80" viewBox="0 0 89 80" fill="none" xmlns="http://www.w3.org/2000/svg">
<path fill-rule="evenodd" clip-rule="evenodd" d="M55.9808 17.8077H52.5667L53.5198 19.0343L57.137 23.6905H58.6839L55.0628 19.0303H55.9769L55.9808 19.0342C56.6293 19.0303 57.2503 18.7725 57.7074 18.3115C58.1645 17.8506 58.4223 17.2295 58.4184 16.581V15.5068H61.0395V14.2802H58.4184V13.5185C58.4184 13.0966 58.3129 12.6826 58.1059 12.3154H61.0395V11.0927H56.3403C56.2192 11.0771 56.102 11.0654 55.9809 11.0654H52.5668V12.3193H56.2387C56.8012 12.4443 57.1996 12.9443 57.1996 13.5185V14.2802H52.5668V15.5068H57.1996V16.581C57.1996 16.9052 57.0746 17.2177 56.8442 17.4482C56.6137 17.6786 56.305 17.8077 55.9808 17.8077ZM88.1488 46.9407C87.9457 45.7337 87.1332 44.7141 86.0043 44.2415L85.9262 44.2063L85.8442 44.179C84.8793 43.8509 83.8637 43.679 82.8442 43.679C81.688 43.6868 80.5395 43.886 79.4497 44.2727C78.227 43.2845 76.6919 42.7688 75.1216 42.8157C74.3325 42.8196 73.5474 42.9173 72.7818 43.1087C72.106 43.2415 69.6177 43.9525 63.4966 47.5696C61.3833 46.0462 58.8677 45.1829 56.2622 45.0813H50.1997C47.7036 45.054 45.2192 44.7454 42.7935 44.1672C39.9576 43.1829 36.9732 42.6907 33.9693 42.722C30.6021 42.7962 27.3091 43.7415 24.4107 45.4603L12.1687 53.4602L11.8405 52.9095L11.653 52.597H11.6491C11.1062 51.6868 10.2194 51.0306 9.18824 50.7728C8.15704 50.5189 7.06714 50.6829 6.16094 51.2298L2.73904 53.3079C0.848436 54.4641 0.239036 56.929 1.37964 58.8313L12.7466 77.7653C13.2896 78.6794 14.1763 79.3356 15.2075 79.5934C16.2387 79.8473 17.3286 79.6832 18.2387 79.1325L21.6645 77.0544C23.5551 75.8982 24.1606 73.4333 23.02 71.5349L22.9458 71.4138L22.5083 70.6794L30.8481 65.9021C33.0942 66.4177 39.7387 67.9021 44.8011 68.6209C46.8402 68.9334 48.8949 69.1014 50.9534 69.1209C55.5472 69.1209 60.0628 67.9529 64.0744 65.7225C69.9846 62.6209 80.2854 54.8045 84.6834 51.4645C85.5154 50.8317 86.1326 50.3629 86.4568 50.1286C87.5818 49.4724 88.2386 48.2376 88.1488 46.9407ZM73.1998 45.0774C73.5045 45.0032 73.8131 44.9446 74.1217 44.9016C74.2115 44.8899 74.2936 44.8821 74.3795 44.8743C74.5865 44.8508 74.7858 44.8391 74.9811 44.8352C75.0279 44.8352 75.0826 44.8274 75.1256 44.8274C75.1529 44.8274 75.1725 44.8352 75.1998 44.8352L75.1959 44.8313C75.4811 44.8352 75.7701 44.8586 76.0514 44.9016C76.1022 44.9094 76.1529 44.9211 76.1998 44.929V44.9329C76.4498 44.9758 76.692 45.0383 76.9303 45.1243H76.942C77.0709 45.1711 77.1725 45.2297 77.2897 45.2844C77.1803 45.3547 77.0944 45.4094 77.0592 45.4329L68.0904 51.4407C67.3756 51.9172 66.6021 52.3 65.7896 52.5813C65.9341 51.343 65.6216 50.0891 64.9107 49.0618C71.1959 45.3899 73.1998 45.0774 73.1998 45.0774ZM21.5398 74.0934C21.4148 74.6129 21.0867 75.0582 20.6297 75.3356L17.2039 77.4098C16.7507 77.6871 16.2039 77.7692 15.6883 77.6403C15.1727 77.5114 14.7312 77.1832 14.4578 76.7262L3.09077 57.7922C2.52046 56.843 2.82515 55.6086 3.77046 55.0305L7.19626 52.9524C7.64938 52.679 8.19626 52.5969 8.71186 52.7219C9.22748 52.8508 9.66889 53.179 9.94236 53.636L10.0634 53.8352L10.4892 54.5461L11.0986 55.5617L12.9072 58.5812L20.7705 71.6832L20.9814 72.0348L21.3057 72.5778V72.5739C21.583 73.0309 21.6648 73.5778 21.5398 74.0934ZM86.1338 47.4914V47.4953C86.1065 47.5734 86.0752 47.6515 86.0323 47.7258C85.9229 47.9133 85.7823 48.0812 85.6182 48.2258C85.5127 48.3195 85.4034 48.4133 85.2862 48.4953C85.0948 48.6359 84.8057 48.8508 84.4346 49.132L83.5791 49.7805C82.1377 50.8743 80.04 52.4719 77.6611 54.2297C77.1299 54.6203 76.5909 55.0187 76.0361 55.4211C75.4814 55.8234 74.9229 56.2296 74.3565 56.6399C73.79 57.0461 73.2197 57.4524 72.6416 57.8587C71.7823 58.4641 70.919 59.0579 70.0714 59.6399C69.2198 60.2219 68.3839 60.7766 67.5714 61.3001C67.0323 61.6477 66.505 61.9836 65.9932 62.3001C65.4815 62.6165 64.9854 62.9133 64.5088 63.1868C64.0323 63.4602 63.5792 63.7141 63.1494 63.9407C62.6338 64.2102 62.1299 64.4563 61.6338 64.6868C61.4854 64.7571 61.3331 64.8196 61.1885 64.886C60.8253 65.0462 60.4698 65.1985 60.1143 65.3391C59.9698 65.3977 59.8253 65.4563 59.6847 65.511C59.2276 65.6868 58.7745 65.8469 58.3291 65.9875L58.2745 66.0071C57.8096 66.1516 57.3565 66.2805 56.9034 66.3938C56.7705 66.429 56.6377 66.4563 56.5049 66.4875C56.1729 66.5657 55.8409 66.636 55.5166 66.6985C55.3838 66.7219 55.251 66.7493 55.1182 66.7727C54.708 66.843 54.2979 66.9055 53.8916 66.9524L53.8057 66.9641C53.3721 67.0149 52.9385 67.0462 52.5049 67.0735C52.3799 67.0813 52.2509 67.0852 52.1259 67.0891C51.8056 67.1048 51.4892 67.1126 51.1689 67.1126C51.0947 67.1126 51.0205 67.1204 50.9463 67.1204H50.7861C50.3799 67.1204 49.9697 67.1087 49.5595 67.0891H49.4892C49.0517 67.0696 48.6142 67.0344 48.1728 66.9993L47.79 66.9641C47.4619 66.9329 47.1298 66.9016 46.7939 66.8626L46.4072 66.8157C45.9658 66.761 45.5205 66.7063 45.0713 66.6399C43.5635 66.4251 41.8994 66.1399 40.2549 65.8313C38.6104 65.5266 36.9893 65.179 35.5479 64.8821C32.6651 64.2727 30.5401 63.7688 30.5401 63.7688L21.4776 68.9602L13.2003 55.1752L25.4773 47.1557C25.946 46.8705 26.4343 46.6127 26.9304 46.3862C27.2351 46.2456 27.5827 46.0932 27.9695 45.9409C28.3523 45.7885 28.7742 45.6401 29.2273 45.4956C30.7625 44.9995 32.3601 44.7416 33.9695 44.726C35.3757 44.7104 36.7781 44.8198 38.1648 45.0502C39.532 45.3042 40.8796 45.6479 42.2 46.0814C42.5828 46.1986 42.9929 46.3041 43.4188 46.3979C44.5086 46.6244 45.6102 46.7846 46.7196 46.8861C47.1454 46.9252 47.5516 46.9604 47.9305 46.9877C49.2508 47.0775 50.2 47.0893 50.2 47.0893H56.2547C56.325 47.0893 56.4656 47.101 56.6531 47.1205C56.9422 47.1478 57.3523 47.1986 57.8328 47.2885V47.2846C58.3758 47.3822 58.9148 47.515 59.4422 47.683C60.2117 47.9252 60.9461 48.2611 61.6297 48.6908C61.6649 48.7142 61.7039 48.7338 61.7391 48.7572C62.1063 48.9994 62.4461 49.2807 62.7586 49.5932C62.9109 49.7533 63.0555 49.9174 63.1883 50.0932L63.1961 50.101C63.1961 50.101 65.1961 53.1166 62.1961 53.1166H48.1961C47.9305 53.1166 47.6766 53.222 47.4891 53.4134C47.2039 53.6986 47.118 54.1322 47.2703 54.5072C47.4266 54.8822 47.7898 55.1283 48.1961 55.1283H63.1961C65.3406 55.015 67.4149 54.3197 69.1961 53.1166L78.1961 47.0854L78.2625 47.0425L78.3016 47.0151C78.3602 46.98 78.4344 46.9331 78.5359 46.8745L78.575 46.8511C78.6688 46.7964 78.7781 46.7378 78.9031 46.6753L78.9383 46.6557L78.9891 46.6284C79.1336 46.5581 79.2977 46.48 79.4734 46.4057L79.5789 46.3628C79.743 46.2964 79.9227 46.23 80.1102 46.1636L80.2391 46.1245C80.4383 46.062 80.6453 46.0034 80.8641 45.9487L80.9266 45.9292L81.0906 45.894C81.325 45.8393 81.5711 45.7925 81.8289 45.7612L81.8953 45.7495C82.1766 45.7182 82.4539 45.7026 82.7352 45.6987C82.7703 45.6987 82.8055 45.6909 82.8445 45.6909C82.9031 45.6909 82.9656 45.6948 83.0242 45.6987C83.1063 45.6987 83.1883 45.6987 83.2703 45.7065C83.3992 45.7143 83.5281 45.7261 83.657 45.7417C83.7391 45.7495 83.8172 45.7573 83.8992 45.769C84.0438 45.7886 84.1844 45.8198 84.3289 45.8471C84.3992 45.8628 84.4695 45.8745 84.5399 45.8901C84.7586 45.9409 84.9774 46.0034 85.1961 46.0776V46.0815C85.3485 46.1518 85.493 46.2417 85.6258 46.3432C85.825 46.4878 85.9852 46.6792 86.0906 46.9018C86.118 46.9604 86.1375 47.019 86.1492 47.0854C86.1609 47.1479 86.1688 47.2182 86.1649 47.2846C86.1609 47.355 86.1492 47.4292 86.1297 47.4956L86.1338 47.4914ZM56.8058 34.4684C61.3449 34.4957 65.7042 32.7106 68.9268 29.5192C72.1495 26.3239 73.9698 21.9762 73.9854 17.4412C74.005 12.9021 72.2159 8.54279 69.0127 5.32819C65.8135 2.10939 61.4658 0.296988 56.9267 0.289088C52.3876 0.281276 48.0322 2.07819 44.8217 5.28519C41.6108 8.48829 39.8061 12.8399 39.8061 17.3792C39.7944 21.8987 41.5795 26.2425 44.767 29.4452C47.9545 32.6522 52.2863 34.4567 56.8058 34.4684ZM56.8058 2.29639V2.30029C60.8097 2.27686 64.6574 3.85109 67.5008 6.66749C70.3446 9.48779 71.95 13.3198 71.9656 17.3235C71.9773 21.3274 70.3992 25.1751 67.575 28.0145C64.7547 30.8504 60.9148 32.452 56.911 32.4598C52.9071 32.4637 49.0672 30.8778 46.231 28.0496C43.399 25.2215 41.8052 21.3816 41.8052 17.3776C41.7974 13.3893 43.3755 9.56509 46.188 6.73659C49.0005 3.90809 52.8169 2.31079 56.805 2.29909L56.8058 2.29639ZM56.8058 30.4483C62.0988 30.4756 66.8838 27.3077 68.9268 22.4288C70.9737 17.546 69.8721 11.9128 66.1416 8.16279C62.4072 4.40889 56.7822 3.28 51.8876 5.2956C46.997 7.3151 43.8056 12.0847 43.8056 17.3776C43.7978 20.8346 45.1611 24.1549 47.5986 26.6042C50.0361 29.0573 53.3488 30.4404 56.8058 30.4483ZM56.8058 5.31529C61.6925 5.28795 66.1105 8.20979 67.9968 12.7176C69.8835 17.2215 68.8679 22.4207 65.4226 25.8856C61.9773 29.3504 56.782 30.3934 52.2666 28.5301C47.7512 26.6668 44.8057 22.2645 44.8057 17.3781C44.794 10.7375 50.1652 5.33829 56.8058 5.31529Z" fill="#673838"/>
</svg>
