<svg width="18" height="18" viewBox="0 0 18 18" fill="none" xmlns="http://www.w3.org/2000/svg">
<g id="Check">
<rect width="18" height="18" rx="9" fill="#F20574"/>
<path id="Vector" d="M15.2609 5.67288L7.31092 13.6229C7.24051 13.6939 7.14466 13.7338 7.04467 13.7338C6.94468 13.7338 6.84883 13.6939 6.77842 13.6229L2.73593 9.58035C2.66493 9.51 2.625 9.41415 2.625 9.3141C2.625 9.21413 2.66493 9.11828 2.73593 9.04785L3.26092 8.52285C3.33133 8.4519 3.42718 8.41193 3.52717 8.41193C3.62716 8.41193 3.72301 8.4519 3.79342 8.52285L7.04093 11.7704L14.2034 4.60788C14.3518 4.46404 14.5876 4.46404 14.7359 4.60788L15.2609 5.14038C15.3319 5.21079 15.3718 5.30664 15.3718 5.40663C15.3718 5.50662 15.3319 5.60246 15.2609 5.67288Z" fill="white"/>
</g>
</svg>
